<svg width="102" height="22" viewBox="0 0 102 22" fill="none" xmlns="http://www.w3.org/2000/svg">
<path d="M6.456 17.24C5.192 17.24 4.12 16.984 3.24 16.472C2.376 15.944 1.72 15.216 1.272 14.288C0.824 13.344 0.6 12.264 0.6 11.048C0.6 9.8 0.824 8.712 1.272 7.784C1.72 6.856 2.368 6.136 3.216 5.624C4.064 5.096 5.088 4.832 6.288 4.832C7.696 4.832 8.808 5.16 9.624 5.816C10.44 6.472 10.968 7.304 11.208 8.312H11.808V10.976H11.352C11.352 9.712 10.992 8.768 10.272 8.144C9.552 7.504 8.528 7.184 7.2 7.184C6.384 7.184 5.672 7.312 5.064 7.568C4.456 7.808 3.992 8.208 3.672 8.768C3.368 9.328 3.216 10.088 3.216 11.048C3.216 11.992 3.368 12.744 3.672 13.304C3.992 13.864 4.456 14.264 5.064 14.504C5.672 14.744 6.4 14.864 7.248 14.864C8.096 14.864 8.824 14.736 9.432 14.48C10.056 14.208 10.528 13.792 10.848 13.232C11.184 12.672 11.352 11.984 11.352 11.168H11.808L11.976 13.568H11.4C11.16 14.752 10.608 15.664 9.744 16.304C8.896 16.928 7.8 17.24 6.456 17.24ZM13.944 17H11.568V13.256L11.352 12.944V0.92H13.944V17ZM18.9326 17H16.3406V5.072H18.9326V17ZM18.9326 3.68H16.3406V0.92H18.9326V3.68ZM32.6128 17H30.2368V13.928L30.0688 13.856V9.776C30.0688 8.784 29.8288 8.096 29.3488 7.712C28.8848 7.312 28.0768 7.112 26.9248 7.112C25.8208 7.112 24.9968 7.304 24.4528 7.688C23.9088 8.072 23.6368 8.704 23.6368 9.584V9.68H21.0688V9.584C21.0688 8.672 21.3088 7.864 21.7888 7.16C22.2688 6.44 22.9568 5.872 23.8528 5.456C24.7648 5.04 25.8528 4.832 27.1168 4.832C28.3808 4.832 29.4128 5.048 30.2128 5.48C31.0288 5.896 31.6288 6.472 32.0128 7.208C32.4128 7.944 32.6128 8.792 32.6128 9.752V17ZM24.8368 17.24C23.6048 17.24 22.6208 16.968 21.8848 16.424C21.1648 15.864 20.8048 15.096 20.8048 14.12C20.8048 13.496 20.9568 12.976 21.2608 12.56C21.5808 12.128 22.0288 11.792 22.6048 11.552C23.1808 11.312 23.8608 11.144 24.6448 11.048L30.3088 10.448V11.984L25.3888 12.536C24.7168 12.616 24.2128 12.76 23.8768 12.968C23.5568 13.16 23.3968 13.488 23.3968 13.952C23.3968 14.432 23.5648 14.792 23.9008 15.032C24.2528 15.256 24.7968 15.368 25.5328 15.368C26.4448 15.368 27.2368 15.256 27.9088 15.032C28.5808 14.792 29.1088 14.424 29.4928 13.928C29.8768 13.432 30.0688 12.792 30.0688 12.008L30.4048 12.056V14.024H30.0688C29.7488 15.032 29.1328 15.824 28.2208 16.4C27.3248 16.96 26.1968 17.24 24.8368 17.24ZM40.5666 17.24C38.6466 17.24 37.1586 16.872 36.1026 16.136C35.0626 15.4 34.5426 14.344 34.5426 12.968V12.896H37.1346V13.088C37.1346 13.872 37.3906 14.416 37.9026 14.72C38.4306 15.008 39.3186 15.152 40.5666 15.152C41.7346 15.152 42.5266 15.032 42.9426 14.792C43.3746 14.536 43.5906 14.144 43.5906 13.616C43.5906 13.12 43.4226 12.768 43.0866 12.56C42.7666 12.352 42.1746 12.192 41.3106 12.08L38.0466 11.648C36.9106 11.504 36.0226 11.184 35.3826 10.688C34.7426 10.176 34.4226 9.416 34.4226 8.408C34.4226 7.704 34.6306 7.088 35.0466 6.56C35.4626 6.016 36.0866 5.592 36.9186 5.288C37.7506 4.984 38.7746 4.832 39.9906 4.832C41.2066 4.832 42.2466 4.992 43.1106 5.312C43.9906 5.632 44.6626 6.112 45.1266 6.752C45.6066 7.392 45.8466 8.184 45.8466 9.128V9.2H43.2786V9.056C43.2786 8.592 43.1826 8.2 42.9906 7.88C42.7986 7.56 42.4546 7.32 41.9586 7.16C41.4786 6.984 40.7986 6.896 39.9186 6.896C38.8146 6.896 38.0466 7.024 37.6146 7.28C37.1826 7.536 36.9666 7.944 36.9666 8.504C36.9666 8.968 37.1266 9.304 37.4466 9.512C37.7666 9.72 38.3666 9.888 39.2466 10.016L42.0066 10.4C43.4146 10.576 44.4546 10.92 45.1266 11.432C45.7986 11.944 46.1346 12.696 46.1346 13.688C46.1346 14.424 45.9026 15.064 45.4386 15.608C44.9746 16.136 44.3266 16.544 43.4946 16.832C42.6626 17.104 41.6866 17.24 40.5666 17.24ZM55.5887 17.24C54.2607 17.24 53.1727 16.912 52.3247 16.256C51.4767 15.6 50.9327 14.728 50.6927 13.64H50.1407V11.24H50.5967C50.5967 12.04 50.7647 12.72 51.1007 13.28C51.4367 13.824 51.9087 14.232 52.5167 14.504C53.1407 14.76 53.8687 14.888 54.7007 14.888C55.5647 14.888 56.2927 14.768 56.8847 14.528C57.4927 14.272 57.9567 13.864 58.2767 13.304C58.5967 12.744 58.7567 11.992 58.7567 11.048C58.7567 10.088 58.5967 9.328 58.2767 8.768C57.9567 8.208 57.4927 7.808 56.8847 7.568C56.2927 7.328 55.5807 7.208 54.7487 7.208C53.4207 7.208 52.3967 7.528 51.6767 8.168C50.9567 8.792 50.5967 9.744 50.5967 11.024H50.1407L49.9727 8.384H50.5967C50.8367 7.28 51.3727 6.416 52.2047 5.792C53.0527 5.152 54.1727 4.832 55.5647 4.832C56.7967 4.832 57.8447 5.096 58.7087 5.624C59.5727 6.136 60.2287 6.856 60.6767 7.784C61.1247 8.712 61.3487 9.8 61.3487 11.048C61.3487 12.264 61.1247 13.344 60.6767 14.288C60.2447 15.216 59.5967 15.944 58.7327 16.472C57.8847 16.984 56.8367 17.24 55.5887 17.24ZM50.5967 21.08H48.0047V5.072H50.3807V8.816L50.5967 9.128V21.08ZM69.2413 17.24C67.9293 17.24 66.7693 16.984 65.7613 16.472C64.7693 15.944 63.9933 15.216 63.4333 14.288C62.8893 13.344 62.6173 12.264 62.6173 11.048C62.6173 9.8 62.8893 8.712 63.4333 7.784C63.9933 6.856 64.7693 6.136 65.7613 5.624C66.7693 5.096 67.9293 4.832 69.2413 4.832C70.5853 4.832 71.7533 5.096 72.7453 5.624C73.7373 6.136 74.5053 6.856 75.0493 7.784C75.6093 8.712 75.8893 9.8 75.8893 11.048C75.8893 12.264 75.6093 13.344 75.0493 14.288C74.5053 15.216 73.7373 15.944 72.7453 16.472C71.7533 16.984 70.5853 17.24 69.2413 17.24ZM69.2413 14.936C70.6973 14.936 71.7453 14.608 72.3853 13.952C73.0253 13.28 73.3453 12.312 73.3453 11.048C73.3453 9.784 73.0253 8.816 72.3853 8.144C71.7453 7.456 70.6973 7.112 69.2413 7.112C67.8013 7.112 66.7613 7.456 66.1213 8.144C65.4813 8.816 65.1613 9.784 65.1613 11.048C65.1613 12.312 65.4813 13.28 66.1213 13.952C66.7613 14.608 67.8013 14.936 69.2413 14.936ZM80.3623 17H77.7703V5.072H80.1463V8.456L80.3623 8.576V17ZM80.3623 10.304H79.7863V8.288H80.3143C80.4263 7.632 80.6503 7.048 80.9863 6.536C81.3223 6.008 81.7703 5.592 82.3303 5.288C82.9063 4.984 83.6023 4.832 84.4183 4.832C85.3303 4.832 86.0743 5.024 86.6503 5.408C87.2263 5.792 87.6423 6.304 87.8983 6.944C88.1703 7.584 88.3063 8.28 88.3063 9.032V10.592H85.7383V9.536C85.7383 8.672 85.5463 8.04 85.1623 7.64C84.7783 7.24 84.1383 7.04 83.2423 7.04C82.2183 7.04 81.4823 7.32 81.0343 7.88C80.5863 8.44 80.3623 9.248 80.3623 10.304ZM101.214 17H98.8384V13.928L98.6704 13.856V9.776C98.6704 8.784 98.4304 8.096 97.9504 7.712C97.4864 7.312 96.6784 7.112 95.5264 7.112C94.4224 7.112 93.5984 7.304 93.0544 7.688C92.5104 8.072 92.2384 8.704 92.2384 9.584V9.68H89.6704V9.584C89.6704 8.672 89.9104 7.864 90.3904 7.16C90.8704 6.44 91.5584 5.872 92.4544 5.456C93.3664 5.04 94.4544 4.832 95.7184 4.832C96.9824 4.832 98.0144 5.048 98.8144 5.48C99.6304 5.896 100.23 6.472 100.614 7.208C101.014 7.944 101.214 8.792 101.214 9.752V17ZM93.4384 17.24C92.2064 17.24 91.2224 16.968 90.4864 16.424C89.7664 15.864 89.4064 15.096 89.4064 14.12C89.4064 13.496 89.5584 12.976 89.8624 12.56C90.1824 12.128 90.6304 11.792 91.2064 11.552C91.7824 11.312 92.4624 11.144 93.2464 11.048L98.9104 10.448V11.984L93.9904 12.536C93.3184 12.616 92.8144 12.76 92.4784 12.968C92.1584 13.16 91.9984 13.488 91.9984 13.952C91.9984 14.432 92.1664 14.792 92.5024 15.032C92.8544 15.256 93.3984 15.368 94.1344 15.368C95.0464 15.368 95.8384 15.256 96.5104 15.032C97.1824 14.792 97.7104 14.424 98.0944 13.928C98.4784 13.432 98.6704 12.792 98.6704 12.008L99.0064 12.056V14.024H98.6704C98.3504 15.032 97.7344 15.824 96.8224 16.4C95.9264 16.96 94.7984 17.24 93.4384 17.24Z" fill="#6958D6"/>
</svg>
